<svg width="263" height="9" viewBox="0 0 263 9" fill="none" xmlns="http://www.w3.org/2000/svg">
<path d="M0.50929 0.75H3.17929C4.50929 0.75 5.74929 1.1 5.74929 2.57C5.74929 3.25 5.41929 3.87 4.94929 4.14C5.59929 4.43 6.03929 4.93 6.03929 5.86C6.03929 7.4 4.85929 8 3.38929 8H0.50929V0.75ZM1.64929 3.82H3.31929C4.09929 3.82 4.59929 3.49 4.59929 2.71C4.59929 2.02 4.07929 1.69 3.31929 1.69H1.64929V3.82ZM1.64929 7.06H3.41929C4.38929 7.06 4.86929 6.63 4.86929 5.86C4.86929 5.06 4.38929 4.7 3.35929 4.7H1.64929V7.06ZM8.00851 0.75H13.0285V1.72H9.14851V3.79H12.8085V4.75H9.14851V7.03H13.0285V8H8.00851V0.75ZM16.0911 7.03H19.8311V8H14.9511V0.75H16.0911V7.03ZM27.0666 2.95H25.9666C25.7266 2.1 25.0566 1.57 23.9966 1.57C22.7366 1.57 21.7866 2.52 21.7866 4.36C21.7866 6.15 22.6766 7.18 23.9866 7.18C24.9066 7.18 26.0366 6.79 26.0366 5.39V5.23H24.1466V4.26H27.0966V8H26.2066L26.1566 7.11C25.7066 7.8 24.8866 8.13 23.9066 8.13C21.8266 8.13 20.6166 6.59 20.6166 4.36C20.6166 2.11 21.9466 0.62 24.0366 0.62C25.5966 0.62 26.7666 1.48 27.0666 2.95ZM30.5426 8H29.4026V0.75H30.5426V8ZM33.9768 0.75V5.1C33.9768 6.47 34.4068 7.17 35.7668 7.17C37.1268 7.17 37.5668 6.4 37.5668 5.02V0.75H38.7068V4.96C38.7068 7.16 37.8768 8.13 35.7668 8.13C33.7168 8.13 32.8368 7.31 32.8368 5.02V0.75H33.9768ZM44.0331 8L42.1031 1.9V8H40.9831V0.75H42.8131L44.6231 6.67L46.4331 0.75H48.2631V8H47.1431V1.9L45.2131 8H44.0331ZM66.2116 2.95H65.1116C64.8716 2.1 64.2016 1.57 63.1416 1.57C61.8816 1.57 60.9316 2.52 60.9316 4.36C60.9316 6.15 61.8216 7.18 63.1316 7.18C64.0516 7.18 65.1816 6.79 65.1816 5.39V5.23H63.2916V4.26H66.2416V8H65.3516L65.3016 7.11C64.8516 7.8 64.0316 8.13 63.0516 8.13C60.9716 8.13 59.7616 6.59 59.7616 4.36C59.7616 2.11 61.0916 0.62 63.1816 0.62C64.7416 0.62 65.9116 1.48 66.2116 2.95ZM68.5476 0.75H73.5676V1.72H69.6876V3.79H73.3476V4.75H69.6876V7.03H73.5676V8H68.5476V0.75ZM78.6001 8.13C76.4901 8.13 75.1701 6.58 75.1701 4.37C75.1701 2.16 76.4901 0.62 78.6001 0.62C80.7001 0.62 82.0201 2.16 82.0201 4.37C82.0201 6.58 80.7001 8.13 78.6001 8.13ZM78.6001 7.18C79.8601 7.18 80.8501 6.19 80.8501 4.37C80.8501 2.55 79.8601 1.57 78.6001 1.57C77.3301 1.57 76.3401 2.55 76.3401 4.37C76.3401 6.19 77.3301 7.18 78.6001 7.18ZM86.9627 4.94C86.8127 4.95 86.6527 4.95 86.4927 4.95H85.2427V8H84.1027V0.75H86.4027C88.3527 0.75 89.5227 1.16 89.5227 2.84C89.5227 3.88 89.0227 4.47 88.1227 4.75L89.7927 8H88.5127L86.9627 4.94ZM85.2427 1.69V4.02H86.5527C87.6227 4.02 88.3527 3.86 88.3527 2.86C88.3527 1.82 87.5627 1.69 86.5327 1.69H85.2427ZM97.7221 2.95H96.6221C96.3821 2.1 95.7121 1.57 94.6521 1.57C93.3921 1.57 92.4421 2.52 92.4421 4.36C92.4421 6.15 93.3321 7.18 94.6421 7.18C95.5621 7.18 96.6921 6.79 96.6921 5.39V5.23H94.8021V4.26H97.7521V8H96.8621L96.8121 7.11C96.3621 7.8 95.5421 8.13 94.5621 8.13C92.4821 8.13 91.2721 6.59 91.2721 4.36C91.2721 2.11 92.6021 0.62 94.6921 0.62C96.2521 0.62 97.4221 1.48 97.7221 2.95ZM101.198 8H100.058V0.75H101.198V8ZM105.492 0.75H106.752L109.482 8H108.242L107.672 6.41H104.522L103.962 8H102.802L105.492 0.75ZM104.862 5.45H107.322L106.082 1.99L104.862 5.45ZM124.833 8L121.633 2V8H120.513V0.75H122.103L125.303 6.74V0.75H126.423V8H124.833ZM128.823 0.75H133.843V1.72H129.963V3.79H133.623V4.75H129.963V7.03H133.843V8H128.823V0.75ZM137.316 1.72H134.986V0.75H140.776V1.72H138.456V8H137.316V1.72ZM148.316 0.75V8H147.176V4.75H143.536V8H142.396V0.75H143.536V3.79H147.176V0.75H148.316ZM150.715 0.75H155.735V1.72H151.855V3.79H155.515V4.75H151.855V7.03H155.735V8H150.715V0.75ZM160.518 4.94C160.368 4.95 160.208 4.95 160.048 4.95H158.798V8H157.658V0.75H159.958C161.908 0.75 163.078 1.16 163.078 2.84C163.078 3.88 162.578 4.47 161.678 4.75L163.348 8H162.068L160.518 4.94ZM158.798 1.69V4.02H160.108C161.178 4.02 161.908 3.86 161.908 2.86C161.908 1.82 161.118 1.69 160.088 1.69H158.798ZM166.385 7.03H170.125V8H165.245V0.75H166.385V7.03ZM173.618 0.75H174.878L177.608 8H176.368L175.798 6.41H172.648L172.088 8H170.928L173.618 0.75ZM172.988 5.45H175.448L174.208 1.99L172.988 5.45ZM183.528 8L180.328 2V8H179.208V0.75H180.798L183.998 6.74V0.75H185.118V8H183.528ZM189.498 0.75C191.798 0.75 193.498 1.58 193.498 4.37C193.498 7.17 191.798 8 189.498 8H187.518V0.75H189.498ZM189.448 1.69H188.658V7.06H189.448C190.898 7.06 192.318 6.76 192.318 4.37C192.318 1.99 190.898 1.69 189.448 1.69ZM197.265 4.64C196.235 4.43 195.255 3.85 195.255 2.63C195.255 1.26 196.685 0.62 197.905 0.62C199.235 0.62 200.385 1.23 200.665 2.69H199.565C199.335 1.83 198.545 1.57 197.855 1.57C197.325 1.57 196.415 1.82 196.415 2.58C196.415 3.18 196.895 3.49 197.515 3.62L198.375 3.8C199.535 4.04 200.805 4.48 200.805 5.94C200.805 7.38 199.425 8.13 198.015 8.13C196.335 8.13 195.205 7.2 195.035 5.68H196.155C196.365 6.67 197.035 7.18 198.055 7.18C198.995 7.18 199.655 6.73 199.655 6.03C199.655 5.28 198.935 4.98 198.155 4.82L197.265 4.64ZM216.356 0.75V5.1C216.356 6.47 216.786 7.17 218.146 7.17C219.506 7.17 219.946 6.4 219.946 5.02V0.75H221.086V4.96C221.086 7.16 220.256 8.13 218.146 8.13C216.096 8.13 215.216 7.31 215.216 5.02V0.75H216.356ZM224.502 4.3L227.682 0.75H229.062L226.362 3.71L229.342 8H227.992L225.602 4.54L224.502 5.75V8H223.362V0.75H224.502V4.3ZM233.721 4.94C233.571 4.95 233.411 4.95 233.251 4.95H232.001V8H230.861V0.75H233.161C235.111 0.75 236.281 1.16 236.281 2.84C236.281 3.88 235.781 4.47 234.881 4.75L236.551 8H235.271L233.721 4.94ZM232.001 1.69V4.02H233.311C234.381 4.02 235.111 3.86 235.111 2.86C235.111 1.82 234.321 1.69 233.291 1.69H232.001ZM240.436 0.75H241.696L244.426 8H243.186L242.616 6.41H239.466L238.906 8H237.746L240.436 0.75ZM239.806 5.45H242.266L241.026 1.99L239.806 5.45ZM247.166 8H246.026V0.75H247.166V8ZM253.89 8L250.69 2V8H249.57V0.75H251.16L254.36 6.74V0.75H255.48V8H253.89ZM257.88 0.75H262.9V1.72H259.02V3.79H262.68V4.75H259.02V7.03H262.9V8H257.88V0.75Z" fill="black"/>
</svg>
